<?xml version="1.0" encoding="UTF-8"?><svg xmlns="http://www.w3.org/2000/svg" xmlns:xlink="http://www.w3.org/1999/xlink" fill-opacity="1" color-rendering="auto" color-interpolation="auto" text-rendering="auto" stroke="black" stroke-linecap="square" width="375" stroke-miterlimit="10" shape-rendering="auto" stroke-opacity="1" fill="black" stroke-dasharray="none" font-weight="normal" stroke-width="1" height="112" font-family="'Dialog'" font-style="normal" stroke-linejoin="miter" font-size="12px" stroke-dashoffset="0" image-rendering="auto">
  <!--Generated by ySVG 2.5-->
  <defs id="genericDefs"/>
  <g>
    <defs id="defs1">
      <clipPath clipPathUnits="userSpaceOnUse" id="clipPath1">
        <path d="M0 0 L375 0 L375 112 L0 112 L0 0 Z"/>
      </clipPath>
      <clipPath clipPathUnits="userSpaceOnUse" id="clipPath2">
        <path d="M49 37 L424 37 L424 149 L49 149 L49 37 Z"/>
      </clipPath>
    </defs>
    <g fill="white" text-rendering="geometricPrecision" shape-rendering="geometricPrecision" transform="translate(-49,-37)" stroke="white">
      <rect x="49" width="375" height="112" y="37" clip-path="url(#clipPath2)" stroke="none"/>
    </g>
    <g fill="rgb(255,204,153)" text-rendering="geometricPrecision" shape-rendering="geometricPrecision" transform="matrix(1,0,0,1,-49,-37)" stroke="rgb(255,204,153)">
      <circle r="41" clip-path="url(#clipPath2)" cx="105" cy="93" stroke="none"/>
    </g>
    <g text-rendering="geometricPrecision" stroke-miterlimit="1.45" shape-rendering="geometricPrecision" transform="matrix(1,0,0,1,-49,-37)" stroke-linecap="butt">
      <circle fill="none" r="41" clip-path="url(#clipPath2)" cx="105" cy="93"/>
      <text x="98.8682" xml:space="preserve" y="97.1543" clip-path="url(#clipPath2)" font-family="sans-serif" stroke="none">:X</text>
    </g>
    <g fill="rgb(204,255,204)" text-rendering="geometricPrecision" shape-rendering="geometricPrecision" transform="matrix(1,0,0,1,-49,-37)" stroke="rgb(204,255,204)">
      <circle r="41" clip-path="url(#clipPath2)" cx="368" cy="93" stroke="none"/>
    </g>
    <g text-rendering="geometricPrecision" stroke-miterlimit="1.45" shape-rendering="geometricPrecision" transform="matrix(1,0,0,1,-49,-37)" stroke-linecap="butt">
      <circle fill="none" r="41" clip-path="url(#clipPath2)" cx="368" cy="93"/>
      <text x="362.3135" xml:space="preserve" y="97.1543" clip-path="url(#clipPath2)" font-family="sans-serif" stroke="none">:Y</text>
      <path fill="none" d="M146 93 L319 93" clip-path="url(#clipPath2)"/>
      <path d="M327 93 L315 88 L318 93 L315 98 Z" clip-path="url(#clipPath2)" stroke="none"/>
      <text x="230.3096" xml:space="preserve" y="127.1543" clip-path="url(#clipPath2)" font-family="sans-serif" stroke="none">:R</text>
    </g>
  </g>
</svg>
